<svg width="638" height="540" viewBox="0 0 638 540" fill="none" xmlns="http://www.w3.org/2000/svg">
    <g filter="url(#filter0_f_134_7)">
        <path fill-rule="evenodd" clip-rule="evenodd" d="M150.133 434.595C147.487 443.662 138.692 449.263 129.612 448.183C137.848 452.155 142.25 461.607 139.605 470.674C136.959 479.742 128.164 485.343 119.085 484.262C127.32 488.234 131.723 497.686 129.077 506.753C126.129 516.855 115.551 522.654 105.449 519.707C96.3818 517.061 90.7807 508.266 91.8613 499.187C87.8893 507.422 78.4373 511.825 69.3698 509.179C60.3024 506.533 54.7012 497.738 55.7818 488.659C51.8099 496.894 42.3581 501.297 33.2904 498.651C23.1889 495.703 17.3897 485.125 20.3372 475.023C22.9831 465.956 31.7779 460.355 40.857 461.435C32.6216 457.463 28.2193 448.011 30.8652 438.944C33.5111 429.876 42.3059 424.275 51.385 425.356C43.1496 421.384 38.7472 411.932 41.3931 402.864C44.3407 392.763 54.9191 386.964 65.0205 389.911C74.0882 392.557 79.6891 401.352 78.6086 410.431C82.5804 402.196 92.0325 397.793 101.1 400.439C110.167 403.085 115.769 411.88 114.688 420.959C118.66 412.724 128.112 408.321 137.179 410.967C147.281 413.915 153.08 424.493 150.133 434.595ZM76.8377 416.5C73.3187 423.797 65.4979 428.084 57.4539 427.127C64.7504 430.646 69.0379 438.467 68.0805 446.511C71.5996 439.214 79.4206 434.926 87.4647 435.884C80.168 432.365 75.8803 424.544 76.8377 416.5ZM93.533 437.655C101.577 438.612 109.398 434.325 112.917 427.028C111.96 435.072 116.247 442.893 123.544 446.412C115.5 445.454 107.679 449.742 104.16 457.039C105.117 448.995 100.83 441.174 93.533 437.655ZM93.632 493.118C97.151 485.822 104.972 481.534 113.016 482.491C105.72 478.972 101.432 471.151 102.389 463.107C98.8702 470.404 91.0492 474.691 83.0051 473.734C90.3017 477.253 94.5894 485.074 93.632 493.118ZM66.3098 452.579C65.3524 460.623 69.6401 468.444 76.9367 471.963C68.8926 471.006 61.0716 475.294 57.5526 482.59C58.51 474.546 54.2225 466.725 46.9259 463.206C54.97 464.164 62.7908 459.876 66.3098 452.579Z" fill="#72AFF7"/>
    </g>
    <g clip-path="url(#clip0_134_7)">
        <path d="M600.804 2.1418C599.31 2.36968 597.822 3.11032 596.857 4.42231L594.877 7.34077L593.64 6.5974C593.326 6.35579 592.967 6.18024 592.583 6.08135C592.199 5.98246 591.8 5.96227 591.408 6.02199C591.016 6.08171 590.641 6.22011 590.304 6.42885C589.967 6.63758 589.676 6.91233 589.449 7.23655C589.207 7.55054 589.031 7.91019 588.933 8.29384C588.834 8.67749 588.813 9.07719 588.873 9.46886C588.933 9.86052 589.071 10.236 589.28 10.5728C589.489 10.9095 589.764 11.2005 590.088 11.4282L591.166 12.3869L589.929 14.069L588.692 13.3197C588.378 13.0781 588.018 12.9026 587.634 12.8037C587.251 12.7048 586.851 12.6846 586.459 12.7443C586.068 12.8041 585.692 12.9425 585.355 13.1512C585.019 13.3599 584.728 13.6347 584.5 13.9589C584.256 14.2733 584.079 14.6339 583.98 15.0188C583.88 15.4037 583.859 15.8049 583.919 16.198C583.979 16.5911 584.118 16.9679 584.328 17.3055C584.538 17.6432 584.815 17.9347 585.141 18.1623L586.218 19.1151L585.287 20.3742C584.686 21.1828 584.311 22.1371 584.201 23.1387C584.092 24.1403 584.251 25.1531 584.662 26.0728L563.016 55.5086C557.041 51.7004 548.239 47.4928 539.593 48.8112C535.757 49.396 531.995 51.1645 528.501 54.4213C520.751 61.6544 523.775 70.363 519.155 76.384C513.974 83.1478 496.659 80.9731 483.712 98.5866C470.762 116.188 480.756 136.284 503.059 152.017C516.573 162.369 530.224 167.66 541.765 165.9C548.718 164.84 554.954 161.189 559.828 154.561C572.776 136.954 565.542 121.085 570.458 114.111C574.83 107.919 584.246 108.359 588.846 98.7984C595.593 84.7887 585.17 72.6504 577.313 66.0227L598.96 36.5869C600.961 36.7835 602.932 36.035 604.213 34.2924L605.138 33.0284L606.375 33.7776C606.67 34.0227 607.013 34.2032 607.381 34.3075C607.75 34.4118 608.137 34.4375 608.516 34.383C609.337 34.2521 610.074 33.8029 610.566 33.1326C610.807 32.8186 610.983 32.459 611.082 32.0753C611.181 31.6917 611.201 31.292 611.141 30.9003C611.081 30.5087 610.943 30.1331 610.734 29.7964C610.526 29.4597 610.251 29.1687 609.927 28.9409L608.849 27.9823L610.085 26.3002L611.323 27.0494C611.618 27.2945 611.96 27.475 612.329 27.5793C612.698 27.6836 613.085 27.7093 613.464 27.6548C614.285 27.5239 615.022 27.0747 615.514 26.4044C615.755 26.0905 615.931 25.7308 616.03 25.3472C616.129 24.9635 616.149 24.5638 616.089 24.1721C616.029 23.7805 615.891 23.405 615.682 23.0682C615.473 22.7315 615.199 22.4405 614.874 22.2128L613.796 21.2541L615.992 18.494C616.452 17.874 616.785 17.1691 616.971 16.42C617.157 15.6708 617.193 14.8922 617.076 14.1291C616.96 13.3659 616.694 12.6334 616.293 11.9738C615.892 11.3141 615.364 10.7404 614.74 10.2857L605.059 3.16578C604.456 2.71548 603.768 2.39248 603.037 2.21645C602.305 2.04041 601.546 2.01501 600.804 2.1418ZM601.494 9.13343C601.944 9.06489 602.432 9.01436 602.828 9.30044C603.209 9.59461 603.463 10.0245 603.535 10.5008C603.608 10.9771 603.494 11.463 603.218 11.8575L593.322 25.3139C593.035 25.7062 592.606 25.971 592.126 26.0517C591.645 26.1118 591.16 25.9848 590.77 25.697C590.39 25.4029 590.138 24.974 590.066 24.4992C589.993 24.0243 590.106 23.5398 590.381 23.1458L600.277 9.68945C600.564 9.29921 601.05 9.20109 601.494 9.13343ZM608.222 14.0813C608.672 14.0127 609.159 13.9564 609.556 14.2483C609.939 14.5415 610.193 14.9716 610.266 15.4483C610.339 15.925 610.224 16.4113 609.946 16.8053L600.05 30.2617C599.761 30.6522 599.333 30.9164 598.855 30.9996C598.375 31.0611 597.89 30.9362 597.499 30.6507C597.118 30.3565 596.864 29.9266 596.791 29.4503C596.719 28.9741 596.833 28.4882 597.109 28.0937L607.005 14.6373C607.292 14.247 607.779 14.1489 608.222 14.0813ZM540.844 57.0136C546.448 56.159 552.948 59.0628 558.067 62.2309L541.521 84.73C541.082 84.7491 540.664 84.6696 540.22 84.7372C536.549 85.3097 533.252 87.3111 531.051 90.3047C528.849 93.2984 527.921 97.0413 528.469 100.717C529.042 104.388 531.043 107.684 534.037 109.886C537.03 112.087 540.773 113.016 544.449 112.468C548.12 111.895 551.416 109.894 553.618 106.9C555.819 103.907 556.747 100.164 556.2 96.4883C556.132 96.0446 555.931 95.669 555.824 95.2374L572.518 72.5365C578.481 77.6369 585.642 86.2104 581.373 95.0811C579.984 97.9573 577.882 99.2574 574.097 101.227C570.765 102.959 566.591 105.089 563.575 109.366C560.265 114.059 560.21 119.575 560.047 125.4C559.836 132.714 559.609 140.981 553.126 149.789C549.722 154.418 545.602 157.095 540.541 157.867C531.684 159.217 520.128 154.731 508.034 145.464C507.967 145.409 507.897 145.358 507.825 145.31C495.478 136.613 487.758 126.966 486.326 118.164C485.484 113.03 486.812 108.263 490.259 103.562C496.74 94.7481 504.563 92.062 511.477 89.6875C516.989 87.7957 522.216 85.9174 525.703 81.3594C528.863 77.2455 529.674 72.7312 530.364 69.0715C531.158 64.8763 531.721 62.6878 534.095 60.4739C536.124 58.5814 538.345 57.3946 540.844 57.0136ZM510.026 113.236C509.548 113.32 509.121 113.586 508.836 113.979L505.745 118.19C505.463 118.583 505.345 119.07 505.418 119.548C505.491 120.026 505.748 120.457 506.135 120.747L531.991 139.762C532.784 140.34 533.964 140.16 534.548 139.372L537.641 135.167C537.918 134.774 538.033 134.288 537.961 133.813C537.888 133.337 537.634 132.908 537.252 132.615L511.389 113.596C511 113.306 510.513 113.179 510.032 113.241L510.026 113.236Z" fill="#446DFF"/>
    </g>
    <defs>
        <filter id="filter0_f_134_7" x="0.56958" y="370.144" width="169.331" height="169.331" filterUnits="userSpaceOnUse" color-interpolation-filters="sRGB">
            <feFlood flood-opacity="0" result="BackgroundImageFix"/>
            <feBlend mode="normal" in="SourceGraphic" in2="BackgroundImageFix" result="shape"/>
            <feGaussianBlur stdDeviation="9.5" result="effect1_foregroundBlur_134_7"/>
        </filter>
        <clipPath id="clip0_134_7">
            <rect width="153.543" height="153.543" fill="white" transform="translate(463.062 23.1445) rotate(-8.66965)"/>
        </clipPath>
    </defs>
</svg>
