<svg width="400" height="955" viewBox="0 0 400 955" fill="none" xmlns="http://www.w3.org/2000/svg">
    <path d="M35.9739 5.65152C37.1666 4.15264 38.9058 3.18892 40.8089 2.97236C42.7121 2.7558 44.6233 3.30414 46.1222 4.49676L85.6829 35.974C87.1817 37.1667 88.1455 38.9059 88.362 40.809C88.5786 42.7122 88.0302 44.6234 86.8376 46.1223L55.3603 85.683C54.1677 87.1818 52.4285 88.1456 50.5254 88.3621C48.6222 88.5787 46.7109 88.0303 45.2121 86.8377L5.65142 55.3604C4.15254 54.1678 3.18882 52.4286 2.97226 50.5255C2.7557 48.6223 3.30404 46.711 4.49666 45.2122L35.9739 5.65152Z" stroke="white" stroke-width="2" stroke-linecap="round" stroke-linejoin="round"/>
    <path d="M31.022 52.4736L44.5123 35.5191C45.7049 34.0202 47.4441 33.0565 49.3473 32.8399C51.2504 32.6234 53.1617 33.1717 54.6606 34.3643C56.1594 35.5569 57.1231 37.2961 57.3397 39.1993C57.5563 41.1025 57.0079 43.0137 55.8153 44.5126L42.3251 61.4671M37.7671 43.9964L49.0702 52.9899" stroke="white" stroke-width="2" stroke-linecap="round" stroke-linejoin="round"/>
    <path d="M313.842 514.697C312.823 513.075 312.49 511.115 312.917 509.248C313.343 507.38 314.493 505.759 316.115 504.74L358.922 477.842C360.544 476.823 362.504 476.49 364.371 476.916C366.239 477.343 367.86 478.493 368.879 480.115L395.777 522.922C396.796 524.544 397.129 526.504 396.703 528.371C396.276 530.239 395.126 531.86 393.504 532.879L350.697 559.777C349.076 560.796 347.115 561.129 345.248 560.703C343.38 560.276 341.759 559.126 340.74 557.504L313.842 514.697Z" stroke="white" stroke-width="2" stroke-linecap="round" stroke-linejoin="round"/>
    <path d="M354.81 518.809C356.432 517.79 358.392 517.457 360.259 517.884C362.127 518.31 363.748 519.46 364.767 521.082C365.786 522.704 366.12 524.664 365.693 526.532C365.267 528.399 364.116 530.021 362.495 531.04L356.379 534.882L341.01 510.422L347.125 506.579C348.747 505.56 350.707 505.227 352.574 505.653C354.442 506.079 356.063 507.23 357.082 508.852C358.102 510.474 358.435 512.434 358.008 514.301C357.582 516.169 356.432 517.79 354.81 518.809ZM354.81 518.809L348.694 522.652" stroke="white" stroke-width="2" stroke-linecap="round" stroke-linejoin="round"/>
    <path d="M136.356 896.419C136.262 894.506 136.931 892.634 138.217 891.214C139.503 889.794 141.3 888.944 143.213 888.849L193.707 886.356C195.621 886.262 197.493 886.931 198.912 888.217C200.332 889.503 201.183 891.3 201.277 893.213L203.77 943.707C203.865 945.62 203.196 947.493 201.91 948.912C200.624 950.332 198.826 951.182 196.913 951.277L146.419 953.77C144.506 953.865 142.634 953.195 141.214 951.909C139.795 950.623 138.944 948.826 138.85 946.913L136.356 896.419Z" stroke="white" stroke-width="2" stroke-linecap="round" stroke-linejoin="round"/>
    <path d="M176.921 912.494C176.826 910.58 175.975 908.783 174.556 907.497C173.136 906.211 171.264 905.542 169.351 905.636C167.438 905.731 165.641 906.581 164.355 908.001C163.069 909.421 162.399 911.293 162.494 913.206L163.206 927.633C163.301 929.546 164.151 931.343 165.571 932.629C166.99 933.915 168.863 934.585 170.776 934.49C172.689 934.396 174.486 933.545 175.772 932.125C177.058 930.706 177.727 928.834 177.633 926.92" stroke="white" stroke-width="2" stroke-linecap="round" stroke-linejoin="round"/>
</svg>
