<svg width="334" height="910" viewBox="0 0 334 910" fill="none" xmlns="http://www.w3.org/2000/svg">
<path d="M269.757 420.36C289.668 437.213 309.575 437.213 329.486 420.36" stroke="white" stroke-width="2" stroke-linecap="round" stroke-linejoin="round"/>
<path d="M324.216 423.972L317.189 393.278L320.703 386.055L327.73 389.666L333 384.25L324.216 368C306.466 368.787 303.17 379.314 299.622 389.666H278.541C275.745 389.666 273.064 390.808 271.087 392.839C269.111 394.871 268 397.627 268 400.5M275.027 423.972L282.054 389.666" stroke="white" stroke-width="2" stroke-linecap="round" stroke-linejoin="round"/>
<path d="M285.568 429.388L292.595 411.333H306.649L313.676 429.388" stroke="white" stroke-width="2" stroke-linecap="round" stroke-linejoin="round"/>
<path d="M30.9748 14.4105L45.4943 27.6354L45.8956 28.0009L46.4207 27.8636L65.4215 22.8955L57.3307 40.7911L57.1071 41.2856L57.4 41.7426L67.9965 58.2782L48.4766 56.1135L47.9371 56.0536L47.593 56.4733L35.1412 71.6611L31.168 52.4275L31.0582 51.896L30.5527 51.6985L12.2605 44.5493L29.3249 34.8271L29.7965 34.5585L29.8282 34.0167L30.9748 14.4105Z" stroke="white" stroke-width="2"/>
<path d="M207.273 867.558L207.096 868.552L208.092 868.719C217.054 870.22 224 878.566 224 888.738C224 899.996 215.506 909 205.174 909H146.827C136.494 909 128 899.996 128 888.738C128 877.481 136.494 868.477 146.827 868.477H146.829H147.814L147.829 867.491C147.973 857.543 155.521 849.645 164.671 849.645C168.772 849.645 172.537 851.223 175.468 853.861L176.333 854.64L176.973 853.668C180.036 849.009 185.068 846 190.728 846C199.966 846 207.572 854.053 207.572 864.136C207.572 865.306 207.469 866.45 207.273 867.558Z" stroke="white" stroke-width="2"/>
</svg>
