<svg width="587" height="448" viewBox="0 0 587 448" fill="none" xmlns="http://www.w3.org/2000/svg">
<path d="M0 0H587L489.167 224L587 448H0L97.8333 224L0 0Z" fill="#6284FF"/>
<path d="M392.735 299.149C390.095 273.226 368.163 253 341.496 253C320.122 253 301.797 265.993 294 284.494C286.203 265.993 267.878 253 246.506 253C219.837 253 197.903 273.226 195.265 299.149C195.089 300.876 195 302.631 195 304.406C195 366.864 271.8 396.343 294 438C316.2 396.345 393 366.866 393 304.406C393 302.631 392.911 300.876 392.735 299.149Z" fill="#72AFF7"/>
</svg>
