<svg width="300" height="46" viewBox="0 0 300 46" fill="none" xmlns="http://www.w3.org/2000/svg">
<path d="M55.9237 15.6071V9.85715H78.8461V15.6071H70.9135V36.1429H63.8565V15.6071H55.9237ZM87.3017 25.0536V36.1429H80.1933V9.85715H87.0443V20.1764H87.2503C87.6967 18.9185 88.4393 17.9388 89.4781 17.2372C90.5169 16.5269 91.766 16.1719 93.2256 16.1719C94.6249 16.1719 95.8398 16.4885 96.87 17.1216C97.9088 17.7548 98.7115 18.6276 99.2781 19.7399C99.8533 20.8524 100.137 22.1272 100.128 23.5647V36.1429H93.0195V25.0536C93.0281 24.0782 92.7834 23.3124 92.2855 22.7561C91.7961 22.1999 91.0965 21.9219 90.1864 21.9219C89.6112 21.9219 89.1047 22.0502 88.6668 22.3069C88.2376 22.555 87.9027 22.9145 87.6624 23.3851C87.4305 23.8471 87.3104 24.4032 87.3017 25.0536ZM111.665 36.5022C109.553 36.5022 107.733 36.1 106.204 35.2958C104.685 34.4829 103.513 33.3192 102.689 31.8047C101.873 30.2816 101.465 28.4591 101.465 26.3371C101.465 24.3006 101.878 22.5208 102.702 20.9978C103.526 19.4747 104.689 18.2896 106.192 17.4425C107.694 16.5954 109.467 16.1719 111.51 16.1719C113.004 16.1719 114.356 16.4029 115.567 16.8649C116.777 17.327 117.812 17.9987 118.67 18.88C119.529 19.7528 120.19 20.8138 120.654 22.063C121.116 23.3124 121.348 24.7199 121.348 26.2857V27.9286H103.681V24.0268H114.807C114.798 23.4621 114.653 22.9657 114.369 22.5379C114.094 22.1016 113.721 21.7636 113.248 21.524C112.785 21.2759 112.257 21.1518 111.665 21.1518C111.089 21.1518 110.562 21.2759 110.08 21.524C109.6 21.7636 109.214 22.0973 108.922 22.5251C108.638 22.9529 108.488 23.4535 108.471 24.0268V28.2366C108.471 28.8698 108.604 29.4345 108.87 29.9308C109.136 30.4271 109.518 30.8164 110.016 31.0987C110.514 31.3811 111.115 31.5224 111.82 31.5224C112.309 31.5224 112.755 31.4538 113.158 31.3169C113.57 31.18 113.923 30.9833 114.214 30.7266C114.507 30.4613 114.721 30.1447 114.858 29.7768H121.348C121.125 31.1458 120.598 32.3352 119.765 33.3449C118.932 34.346 117.829 35.1246 116.455 35.6808C115.09 36.2284 113.493 36.5022 111.665 36.5022ZM135.321 36.1429H127.594L136.3 9.85715H146.087L154.792 36.1429H147.065L141.296 17.096H141.09L135.321 36.1429ZM133.878 25.7724H148.404V31.1116H133.878V25.7724ZM155.985 36.1429V16.4286H162.887V20.1764H163.093C163.454 18.7901 164.024 17.7763 164.805 17.1345C165.596 16.4928 166.519 16.1719 167.575 16.1719C167.883 16.1719 168.188 16.1976 168.489 16.2488C168.798 16.2917 169.094 16.3559 169.377 16.4414V22.4867C169.025 22.3668 168.592 22.2769 168.077 22.2171C167.562 22.1572 167.12 22.1272 166.751 22.1272C166.055 22.1272 165.429 22.2856 164.87 22.6021C164.321 22.9102 163.887 23.3465 163.569 23.9112C163.252 24.4674 163.093 25.122 163.093 25.875V36.1429H155.985ZM182.868 16.4286V21.5625H169.836V16.4286H182.868ZM172.36 11.7054H179.468V29.8024C179.468 30.0762 179.515 30.3073 179.61 30.4956C179.704 30.6752 179.851 30.8121 180.048 30.9062C180.245 30.9918 180.499 31.0346 180.808 31.0346C181.022 31.0346 181.271 31.0089 181.555 30.9576C181.846 30.9062 182.062 30.8635 182.199 30.8292L183.229 35.8091C182.911 35.9032 182.456 36.0188 181.864 36.1557C181.28 36.2926 180.585 36.3825 179.778 36.4252C178.146 36.5108 176.777 36.3439 175.669 35.9247C174.562 35.4969 173.73 34.8252 173.171 33.9096C172.613 32.9941 172.343 31.8474 172.36 30.4699V11.7054ZM189.989 36.1429V9.85715H197.149V20.125H206.627V9.85715H213.787V36.1429H206.627V25.875H197.149V36.1429H189.989ZM225.369 36.5022C223.223 36.5022 221.386 36.0787 219.857 35.2316C218.33 34.3759 217.157 33.1866 216.342 31.6636C215.526 30.1319 215.119 28.3564 215.119 26.3371C215.119 24.3177 215.526 22.5465 216.342 21.0234C217.157 19.4918 218.33 18.3024 219.857 17.4554C221.386 16.5997 223.223 16.1719 225.369 16.1719C227.515 16.1719 229.353 16.5997 230.88 17.4554C232.409 18.3024 233.58 19.4918 234.397 21.0234C235.212 22.5465 235.62 24.3177 235.62 26.3371C235.62 28.3564 235.212 30.1319 234.397 31.6636C233.58 33.1866 232.409 34.3759 230.88 35.2316C229.353 36.0787 227.515 36.5022 225.369 36.5022ZM225.421 31.2657C226.022 31.2657 226.541 31.0646 226.979 30.6624C227.416 30.2602 227.756 29.687 227.996 28.9425C228.236 28.1981 228.357 27.3125 228.357 26.2857C228.357 25.2504 228.236 24.3648 227.996 23.6289C227.756 22.8845 227.416 22.3112 226.979 21.909C226.541 21.5069 226.022 21.3058 225.421 21.3058C224.786 21.3058 224.24 21.5069 223.785 21.909C223.33 22.3112 222.982 22.8845 222.742 23.6289C222.501 24.3648 222.381 25.2504 222.381 26.2857C222.381 27.3125 222.501 28.1981 222.742 28.9425C222.982 29.687 223.33 30.2602 223.785 30.6624C224.24 31.0646 224.786 31.2657 225.421 31.2657ZM249.88 27.5179V16.4286H256.989V36.1429H250.241V32.3951H250.034C249.605 33.6529 248.854 34.6369 247.781 35.3471C246.708 36.0488 245.433 36.3996 243.956 36.3996C242.574 36.3996 241.364 36.083 240.325 35.4498C239.294 34.8166 238.492 33.9438 237.916 32.8315C237.349 31.7191 237.063 30.4442 237.054 29.0067V16.4286H244.163V27.5179C244.171 28.4933 244.42 29.2591 244.909 29.8153C245.408 30.3715 246.102 30.6496 246.996 30.6496C247.588 30.6496 248.099 30.5255 248.527 30.2773C248.966 30.0207 249.3 29.6612 249.532 29.1993C249.773 28.7286 249.889 28.1681 249.88 27.5179ZM277.234 22.846H270.692C270.657 22.4438 270.515 22.0973 270.267 21.8064C270.018 21.5154 269.696 21.293 269.301 21.139C268.914 20.9763 268.486 20.8951 268.013 20.8951C267.403 20.8951 266.88 21.0063 266.442 21.2288C266.004 21.4512 265.79 21.7679 265.798 22.1786C265.79 22.4695 265.914 22.739 266.171 22.9872C266.438 23.2353 266.948 23.4278 267.704 23.5647L271.722 24.2835C273.748 24.6514 275.255 25.2717 276.242 26.1445C277.238 27.0088 277.741 28.1681 277.748 29.6228C277.741 31.026 277.32 32.2453 276.487 33.2807C275.663 34.3075 274.534 35.1033 273.1 35.668C271.675 36.2241 270.048 36.5022 268.22 36.5022C265.198 36.5022 262.832 35.8861 261.124 34.654C259.424 33.4219 258.475 31.7961 258.278 29.7768H265.335C265.43 30.4014 265.738 30.8848 266.262 31.2271C266.794 31.5608 267.464 31.7276 268.27 31.7276C268.923 31.7276 269.46 31.6165 269.88 31.394C270.31 31.1715 270.529 30.8549 270.537 30.4442C270.529 30.0677 270.34 29.7682 269.97 29.5458C269.61 29.3233 269.044 29.1436 268.27 29.0067L264.768 28.3907C262.751 28.0399 261.24 27.3724 260.235 26.3883C259.231 25.4044 258.733 24.1381 258.742 22.5893C258.733 21.2202 259.093 20.0608 259.823 19.111C260.562 18.1527 261.613 17.4255 262.978 16.9291C264.352 16.4243 265.979 16.1719 267.858 16.1719C270.718 16.1719 272.971 16.7623 274.62 17.9431C276.277 19.1238 277.148 20.7582 277.234 22.846ZM288.5 36.5022C286.388 36.5022 284.568 36.1 283.04 35.2958C281.52 34.4829 280.348 33.3192 279.524 31.8047C278.709 30.2816 278.301 28.4591 278.301 26.3371C278.301 24.3006 278.713 22.5208 279.537 20.9978C280.362 19.4747 281.524 18.2896 283.027 17.4425C284.53 16.5954 286.302 16.1719 288.345 16.1719C289.84 16.1719 291.191 16.4029 292.402 16.8649C293.612 17.327 294.647 17.9987 295.505 18.88C296.364 19.7528 297.025 20.8138 297.489 22.063C297.953 23.3124 298.185 24.7199 298.185 26.2857V27.9286H280.515V24.0268H291.642C291.634 23.4621 291.488 22.9657 291.204 22.5379C290.93 22.1016 290.556 21.7636 290.084 21.524C289.621 21.2759 289.092 21.1518 288.5 21.1518C287.925 21.1518 287.397 21.2759 286.916 21.524C286.435 21.7636 286.049 22.0973 285.757 22.5251C285.474 22.9529 285.323 23.4535 285.307 24.0268V28.2366C285.307 28.8698 285.44 29.4345 285.705 29.9308C285.971 30.4271 286.354 30.8164 286.852 31.0987C287.349 31.3811 287.951 31.5224 288.655 31.5224C289.144 31.5224 289.59 31.4538 289.993 31.3169C290.405 31.18 290.758 30.9833 291.049 30.7266C291.342 30.4613 291.556 30.1447 291.693 29.7768H298.185C297.96 31.1458 297.433 32.3352 296.6 33.3449C295.767 34.346 294.664 35.1246 293.29 35.6808C291.925 36.2284 290.329 36.5022 288.5 36.5022Z" fill="white"/>
<path opacity="0.65" d="M25.2747 39.5382C14.3956 39.5382 5.49451 30.7763 5.49451 19.8239C5.49451 8.98107 14.2857 0.109619 25.2747 0.109619H37.6923C41.7582 0.109619 44.9451 3.39534 44.9451 7.33821V19.8239C45.055 30.6668 36.1538 39.5382 25.2747 39.5382Z" fill="white"/>
<path opacity="0.7" d="M19.7802 45.0144C8.79121 45.0144 0 36.2525 0 25.3001C0 14.4572 8.79121 5.58582 19.7802 5.58582H32.1978C36.2637 5.58582 39.4505 8.87153 39.4505 12.8144V25.3001C39.4505 36.2525 30.6593 45.0144 19.7802 45.0144Z" fill="white"/>
<path d="M16.2322 30.6667H12.6109L18.1288 14.7359H22.4838L27.9939 30.6667H24.3725L20.3687 18.3763H20.2439L16.2322 30.6667ZM16.0058 24.4049H24.5598V27.034H16.0058V24.4049Z" fill="#446DFF"/>
</svg>
