<svg width="180" height="180" viewBox="0 0 180 180" fill="none" xmlns="http://www.w3.org/2000/svg">
    <path d="M146.25 22.5H33.75C30.7663 22.5 27.9048 23.6853 25.795 25.795C23.6853 27.9048 22.5 30.7663 22.5 33.75V146.25C22.5 149.234 23.6853 152.095 25.795 154.205C27.9048 156.315 30.7663 157.5 33.75 157.5H146.25C149.234 157.5 152.095 156.315 154.205 154.205C156.315 152.095 157.5 149.234 157.5 146.25V33.75C157.5 30.7663 156.315 27.9048 154.205 25.795C152.095 23.6853 149.234 22.5 146.25 22.5ZM102.895 54.6047C101.84 53.5492 101.247 52.1177 101.247 50.625C101.247 49.1323 101.84 47.7008 102.895 46.6453C103.951 45.5898 105.382 44.9969 106.875 44.9969C108.368 44.9969 109.799 45.5898 110.855 46.6453L118.125 53.9227L125.395 46.6453C126.451 45.5898 127.882 44.9969 129.375 44.9969C130.868 44.9969 132.299 45.5898 133.355 46.6453C134.41 47.7008 135.003 49.1323 135.003 50.625C135.003 52.1177 134.41 53.5492 133.355 54.6047L126.077 61.875L133.355 69.1453C133.877 69.6679 134.292 70.2884 134.575 70.9712C134.858 71.654 135.003 72.3859 135.003 73.125C135.003 73.8641 134.858 74.596 134.575 75.2788C134.292 75.9616 133.877 76.5821 133.355 77.1047C132.832 77.6273 132.212 78.0419 131.529 78.3247C130.846 78.6076 130.114 78.7531 129.375 78.7531C128.636 78.7531 127.904 78.6076 127.221 78.3247C126.538 78.0419 125.918 77.6273 125.395 77.1047L118.125 69.8273L110.855 77.1047C109.799 78.1602 108.368 78.7531 106.875 78.7531C105.382 78.7531 103.951 78.1602 102.895 77.1047C101.84 76.0492 101.247 74.6177 101.247 73.125C101.247 71.6323 101.84 70.2008 102.895 69.1453L110.173 61.875L102.895 54.6047ZM78.75 123.75H67.5V135C67.5 136.492 66.9074 137.923 65.8525 138.977C64.7976 140.032 63.3668 140.625 61.875 140.625C60.3832 140.625 58.9524 140.032 57.8975 138.977C56.8426 137.923 56.25 136.492 56.25 135V123.75H45C43.5082 123.75 42.0774 123.157 41.0225 122.102C39.9676 121.048 39.375 119.617 39.375 118.125C39.375 116.633 39.9676 115.202 41.0225 114.148C42.0774 113.093 43.5082 112.5 45 112.5H56.25V101.25C56.25 99.7582 56.8426 98.3274 57.8975 97.2725C58.9524 96.2176 60.3832 95.625 61.875 95.625C63.3668 95.625 64.7976 96.2176 65.8525 97.2725C66.9074 98.3274 67.5 99.7582 67.5 101.25V112.5H78.75C80.2418 112.5 81.6726 113.093 82.7275 114.148C83.7824 115.202 84.375 116.633 84.375 118.125C84.375 119.617 83.7824 121.048 82.7275 122.102C81.6726 123.157 80.2418 123.75 78.75 123.75ZM78.75 67.5H45C43.5082 67.5 42.0774 66.9074 41.0225 65.8525C39.9676 64.7976 39.375 63.3668 39.375 61.875C39.375 60.3832 39.9676 58.9524 41.0225 57.8975C42.0774 56.8426 43.5082 56.25 45 56.25H78.75C80.2418 56.25 81.6726 56.8426 82.7275 57.8975C83.7824 58.9524 84.375 60.3832 84.375 61.875C84.375 63.3668 83.7824 64.7976 82.7275 65.8525C81.6726 66.9074 80.2418 67.5 78.75 67.5ZM135 135H101.25C99.7582 135 98.3274 134.407 97.2725 133.352C96.2176 132.298 95.625 130.867 95.625 129.375C95.625 127.883 96.2176 126.452 97.2725 125.398C98.3274 124.343 99.7582 123.75 101.25 123.75H135C136.492 123.75 137.923 124.343 138.977 125.398C140.032 126.452 140.625 127.883 140.625 129.375C140.625 130.867 140.032 132.298 138.977 133.352C137.923 134.407 136.492 135 135 135ZM135 112.5H101.25C99.7582 112.5 98.3274 111.907 97.2725 110.852C96.2176 109.798 95.625 108.367 95.625 106.875C95.625 105.383 96.2176 103.952 97.2725 102.898C98.3274 101.843 99.7582 101.25 101.25 101.25H135C136.492 101.25 137.923 101.843 138.977 102.898C140.032 103.952 140.625 105.383 140.625 106.875C140.625 108.367 140.032 109.798 138.977 110.852C137.923 111.907 136.492 112.5 135 112.5Z" fill="#446DFF"/>
</svg>
