<svg width="50" height="50" viewBox="0 0 50 50" fill="none" xmlns="http://www.w3.org/2000/svg">
    <path d="M25.5 27.5H17.5C16.7917 27.5 16.1975 27.26 15.7175 26.78C15.2375 26.3 14.9983 25.7067 15 25C15 24.2917 15.24 23.6975 15.72 23.2175C16.2 22.7375 16.7933 22.4983 17.5 22.5H25.5L23.25 20.25C22.7917 19.7917 22.5625 19.2083 22.5625 18.5C22.5625 17.7917 22.7917 17.2083 23.25 16.75C23.7083 16.2917 24.2917 16.0625 25 16.0625C25.7083 16.0625 26.2917 16.2917 26.75 16.75L33.25 23.25C33.75 23.75 34 24.3333 34 25C34 25.6667 33.75 26.25 33.25 26.75L26.75 33.25C26.2917 33.7083 25.7083 33.9375 25 33.9375C24.2917 33.9375 23.7083 33.7083 23.25 33.25C22.7917 32.7917 22.5625 32.2083 22.5625 31.5C22.5625 30.7917 22.7917 30.2083 23.25 29.75L25.5 27.5ZM25 50C28.4583 50 31.7083 49.3433 34.75 48.03C37.7917 46.7167 40.4375 44.9358 42.6875 42.6875C44.9375 40.4375 46.7183 37.7917 48.03 34.75C49.3417 31.7083 49.9983 28.4583 50 25C50 21.5417 49.3433 18.2917 48.03 15.25C46.7167 12.2083 44.9358 9.5625 42.6875 7.3125C40.4375 5.0625 37.7917 3.28167 34.75 1.97C31.7083 0.658334 28.4583 0.00166667 25 0C21.5417 0 18.2917 0.656667 15.25 1.97C12.2083 3.28333 9.5625 5.06417 7.3125 7.3125C5.0625 9.5625 3.28084 12.2083 1.96751 15.25C0.654173 18.2917 -0.0016619 21.5417 4.76837e-06 25C4.76837e-06 28.4583 0.656672 31.7083 1.97 34.75C3.28334 37.7917 5.06417 40.4375 7.3125 42.6875C9.5625 44.9375 12.2083 46.7192 15.25 48.0325C18.2917 49.3458 21.5417 50.0017 25 50Z" fill="#6284FF"/>
</svg>
