<svg width="22" height="271" viewBox="0 0 22 271" fill="none" xmlns="http://www.w3.org/2000/svg">
<path d="M2 269C2 255.645 20 255.645 20 242.291C20 228.936 2 228.936 2 215.581C2 202.226 20 202.226 20 188.903C20 175.548 2 175.548 2 162.225C2 148.87 20 148.87 20 135.547C20 122.192 2 122.192 2 108.838C2 95.483 20 95.483 20 82.128C20 68.774 2 68.774 2 55.419C2 42.064 20 42.064 20 28.709C20 15.355 2 15.355 2 2" stroke="#3B5EDB" stroke-width="3" stroke-miterlimit="10" stroke-linecap="round"/>
</svg>
